<?xml version="1.0" encoding="iso-8859-1"?>
<!-- Generator: Adobe Illustrator 18.0.0, SVG Export Plug-In . SVG Version: 6.00 Build 0)  -->
<!DOCTYPE svg PUBLIC "-//W3C//DTD SVG 1.1//EN" "http://www.w3.org/Graphics/SVG/1.1/DTD/svg11.dtd">
<svg version="1.1" id="Capa_1" xmlns="http://www.w3.org/2000/svg" xmlns:xlink="http://www.w3.org/1999/xlink" x="0px" y="0px"
	 viewBox="0 0 345.021 345.021" style="enable-background:new 0 0 345.021 345.021;" xml:space="preserve">
<g>
	<path style="fill:#211915;" d="M324.064,160.721l-55.764-42.107c-42.219-31.879-94.604-49.436-147.505-49.436H60.973
		c-16.835,0-31.795,10.082-38.113,25.686L8.004,131.547C2.693,144.659,0,158.483,0,172.634v33.125
		c0,20.816,15.408,38.098,35.417,41.05c4.261,16.671,19.407,29.035,37.387,29.035c17.817,0,32.845-12.143,37.262-28.585h124.962
		c4.417,16.442,19.445,28.585,37.262,28.585s32.846-12.143,37.263-28.585h25.468c5.522,0,10-4.478,10-10v-34.452
		C345.021,186.362,337.187,170.629,324.064,160.721z M91.388,237.259c0,10.248-8.337,18.585-18.584,18.585
		c-10.248,0-18.585-8.337-18.585-18.585c0-10.247,8.337-18.584,18.585-18.584C83.051,218.675,91.388,227.012,91.388,237.259z
		 M290.875,237.259c0,10.248-8.337,18.585-18.585,18.585c-10.247,0-18.584-8.337-18.584-18.585c0-10.247,8.337-18.584,18.584-18.584
		C282.538,218.675,290.875,227.012,290.875,237.259z M325.021,227.259h-15.468c-4.417-16.442-19.446-28.584-37.263-28.584
		s-32.845,12.142-37.262,28.584H110.066c-4.417-16.442-19.445-28.584-37.262-28.584c-17.527,0-32.352,11.751-37.036,27.784
		C26.691,223.942,20,215.627,20,205.759v-33.125c0-11.565,2.201-22.862,6.541-33.579l14.855-36.685
		c3.245-8.014,10.93-13.192,19.576-13.192h59.823c48.579,0,96.684,16.122,135.452,45.396l55.765,42.107
		c8.146,6.15,13.009,15.917,13.009,26.125V227.259z"/>
	<path style="fill:#211915;" d="M242.465,148.17l-18.34-13.849c-25.719-19.42-57.631-30.115-89.857-30.115c-5.522,0-10,4.478-10,10
		v44.3c0,5.522,4.478,10,10,10h102.171c5.522,0,10-4.478,10-10v-2.355C246.438,153.015,244.967,150.06,242.465,148.17z
		 M144.268,124.602c23.45,1.852,46.269,10.161,65.394,23.904h-65.394V124.602z"/>
</g>
<g>
</g>
<g>
</g>
<g>
</g>
<g>
</g>
<g>
</g>
<g>
</g>
<g>
</g>
<g>
</g>
<g>
</g>
<g>
</g>
<g>
</g>
<g>
</g>
<g>
</g>
<g>
</g>
<g>
</g>
</svg>
