<?xml version='1.0' encoding='utf-8'?>
<!DOCTYPE svg PUBLIC '-//W3C//DTD SVG 1.1//EN' 'http://www.w3.org/Graphics/SVG/1.1/DTD/svg11.dtd'>
<svg version="1.1" xmlns="http://www.w3.org/2000/svg" viewBox="0 0 512 512" xmlns:xlink="http://www.w3.org/1999/xlink" enable-background="new 0 0 512 512">
  <g>
    <g>
      <path d="m266.1,237.1h-82.2c-6.2,0-10.4,5.2-10.4,10.4v243c0,6.3 5.2,10.4 10.4,10.4h82.2c5.2,0 10.4-4.2 10.4-10.4v-243c0-6.2-5.2-10.4-10.4-10.4zm-10.4,243h-61.4v-222.1h61.4v222.1z"/>
      <path d="M103.7,272.6H21.5c-6.2,0-10.4,5.2-10.4,10.4v207.6c0,6.3,5.2,10.4,10.4,10.4h82.2c5.2,0,10.4-4.2,10.4-10.4V283    C114.1,276.7,108.9,272.6,103.7,272.6z M93.3,480.1H31.9V293.4h61.4V480.1z"/>
      <path d="m499.2,157.8l-103-142.9c-4.2-5.2-12.5-5.2-16.6,0l-103,142.9c-4.2,5.9-2.6,15.6 8.3,15.6h51v317.1c0,6.3 5.2,10.4 10.4,10.4h82.2c5.2,0 10.4-4.2 11.4-10.4v-317h51c10.2,0 12.4-10.4 8.3-15.7zm-70.8-5.2c-6.2,0-10.4,5.2-10.4,10.4v317.1h-61.4-1v-317.1c0-6.3-5.2-10.4-10.4-10.4h-41.6l83.2-114.7 83.2,114.7h-41.6z"/>
    </g>
  </g>
</svg>
