<?xml version="1.0" encoding="iso-8859-1"?>
<!-- Generator: Adobe Illustrator 19.0.0, SVG Export Plug-In . SVG Version: 6.00 Build 0)  -->
<svg version="1.1" id="Layer_1" xmlns="http://www.w3.org/2000/svg" xmlns:xlink="http://www.w3.org/1999/xlink" x="0px" y="0px"
	 viewBox="0 0 296.998 296.998" style="enable-background:new 0 0 296.998 296.998;" xml:space="preserve">
<g>
	<g>
		<g>
			<path d="M216.634,119.009c-2.692,0-5.323,1.095-7.236,2.999c-1.904,1.904-2.989,4.545-2.989,7.237
				c0,2.692,1.085,5.333,2.989,7.236c1.913,1.904,4.544,3,7.236,3c2.703,0,5.333-1.096,7.247-3c1.904-1.914,3-4.544,3-7.236
				c0-2.692-1.096-5.333-3-7.237C221.967,120.103,219.337,119.009,216.634,119.009z"/>
			<path d="M286.763,119.004h-11.181c-7.265-25.406-24.572-48.256-48.706-64.19V24.055c0-5.381-4.166-9.843-9.535-10.212
				c-1.386-0.093-31.886-1.915-50.852,18.823c-6.641-0.874-13.334-1.316-19.973-1.316c-50.137,0-93.876,24.222-116.521,59.89
				c-11.576-6.527-9.629-19.966-9.028-22.959c1.162-5.505-2.339-10.92-7.844-12.116c-5.532-1.203-10.976,2.307-12.175,7.831
				c-2.589,11.928-1.046,34.732,19.708,45.564c-4.594,11.68-7.091,24.197-7.091,37.211c0,19.272,6.667,36.062,13.872,51.336
				c12.813,27.166,40.94,77.73,42.13,79.869c1.807,3.245,5.23,5.257,8.944,5.257h33.779c5.653,0,10.236-4.583,10.236-10.236v-25.421
				c15.478,2.447,31.582,2.495,47.087,0.138v25.283c0,5.653,4.583,10.236,10.236,10.236h33.779c3.348,0,6.485-1.637,8.398-4.384
				c1.063-1.524,26.117-37.555,34.7-56.437c4.621-10.166,7.835-18.464,10.67-25.786c0.601-1.549,1.187-3.064,1.771-4.557h17.595
				c5.653,0,10.236-4.583,10.236-10.236V129.24C296.999,123.587,292.416,119.004,286.763,119.004z M262.24,171.596
				c-4.146,0-7.882,2.501-9.464,6.334c-1.548,3.757-2.968,7.422-4.471,11.304c-2.87,7.41-5.837,15.073-10.216,24.708
				c-6.174,13.582-22.958,38.706-29.849,48.82h-18.155v-27.477c0-3.138-1.439-6.102-3.905-8.043s-5.688-2.644-8.734-1.907
				c-10.025,2.42-20.431,3.648-30.931,3.648c-10.792,0-21.477-1.296-31.758-3.85c-3.057-0.762-6.293-0.069-8.774,1.87
				c-2.481,1.94-3.931,4.914-3.931,8.064v27.695H84.545c-7.652-13.873-28.438-51.86-38.594-73.389
				c-6.188-13.119-11.915-27.36-11.915-42.601c0-52.355,50.458-94.949,112.479-94.949c7.488,0,15.064,0.65,22.517,1.931
				c3.901,0.669,7.855-0.976,10.127-4.228c6.993-10.016,18.88-13.504,27.244-14.693v25.634c0,3.601,1.891,6.936,4.981,8.785
				c24.449,14.626,41.251,37.207,46.096,61.956c0.941,4.803,5.15,8.269,10.045,8.269h9.001v32.119H262.24z"/>
			<path d="M162.959,72.823h-33.78c-5.653,0-10.236,4.583-10.236,10.236s4.583,10.236,10.236,10.236h33.779
				c5.653,0,10.236-4.583,10.236-10.236C173.195,77.406,168.612,72.823,162.959,72.823z"/>
		</g>
	</g>
</g>
<g>
</g>
<g>
</g>
<g>
</g>
<g>
</g>
<g>
</g>
<g>
</g>
<g>
</g>
<g>
</g>
<g>
</g>
<g>
</g>
<g>
</g>
<g>
</g>
<g>
</g>
<g>
</g>
<g>
</g>
</svg>
